<svg width="17" height="16" viewBox="0 0 17 16" fill="none" xmlns="http://www.w3.org/2000/svg">
<path d="M14.4692 0.012207H1.73573C0.860302 0.012207 0.144043 0.728466 0.144043 1.60389V14.3374C0.144043 15.2128 0.860302 15.9291 1.73573 15.9291H14.4692C15.3447 15.9291 16.0609 15.2128 16.0609 14.3374V1.60389C16.0609 0.728466 15.3447 0.012207 14.4692 0.012207ZM13.6734 12.499C13.6734 12.8571 13.3948 13.1436 13.0526 13.1436H12.7025C12.3523 13.1436 12.0817 12.8571 12.0817 12.499V11.5519H4.12326V12.499C4.12326 12.8571 3.84471 13.1436 3.5025 13.1436H3.15233C2.81012 13.1436 2.53157 12.8571 2.53157 12.499V7.32601C3.18417 5.36027 3.598 4.11876 3.77309 3.5935C3.81288 3.46617 3.86859 3.36271 3.9243 3.27517C3.94022 3.25925 3.94817 3.24333 3.96409 3.22741C4.26651 2.80562 4.69627 2.79766 4.69627 2.79766H11.5087C11.5087 2.79766 11.9384 2.80562 12.2409 3.21946C12.2568 3.24333 12.2647 3.25925 12.2807 3.27517C12.3364 3.36271 12.3921 3.46617 12.4319 3.5935C12.607 4.11876 13.0208 5.36823 13.6734 7.32601V12.499Z" fill="white" fill-opacity="0.6"/>
</svg>
