<svg width="16" height="15" viewBox="0 0 16 15" fill="none" xmlns="http://www.w3.org/2000/svg">
<path fill-rule="evenodd" clip-rule="evenodd" d="M2.05172 4.53261L6.51684 0.563863C6.9255 0.200636 7.45325 0 8 0C8.54675 0 9.0745 0.200636 9.48316 0.563863L13.9483 4.53261C14.1839 4.74204 14.3725 4.999 14.5017 5.28657C14.6308 5.57415 14.6976 5.88582 14.6977 6.20107V13.5707H15.4419C15.5899 13.5707 15.7319 13.6296 15.8365 13.7342C15.9412 13.8389 16 13.9809 16 14.1289C16 14.2769 15.9412 14.4189 15.8365 14.5236C15.7319 14.6282 15.5899 14.687 15.4419 14.687H0.55814C0.410112 14.687 0.268147 14.6282 0.163475 14.5236C0.0588038 14.4189 0 14.2769 0 14.1289C0 13.9809 0.0588038 13.8389 0.163475 13.7342C0.268147 13.6296 0.410112 13.5707 0.55814 13.5707H1.30233V6.20107C1.30236 5.88582 1.36916 5.57415 1.49832 5.28657C1.62749 4.999 1.81609 4.74204 2.05172 4.53261ZM5.95349 4.45447C5.95349 4.30644 6.01229 4.16447 6.11696 4.0598C6.22164 3.95513 6.3636 3.89633 6.51163 3.89633H9.48837C9.6364 3.89633 9.77836 3.95513 9.88304 4.0598C9.98771 4.16447 10.0465 4.30644 10.0465 4.45447C10.0465 4.6025 9.98771 4.74446 9.88304 4.84913C9.77836 4.9538 9.6364 5.01261 9.48837 5.01261H6.51163C6.3636 5.01261 6.22164 4.9538 6.11696 4.84913C6.01229 4.74446 5.95349 4.6025 5.95349 4.45447ZM9.52707 6.12889C10.1961 6.12889 10.7535 6.12889 11.1955 6.18842C11.6629 6.25093 12.0848 6.38935 12.4234 6.7287C12.7628 7.0673 12.9012 7.48926 12.9637 7.95661C13.0233 8.39865 13.0233 8.95679 13.0233 9.62507V13.5707H11.907V9.66377C11.907 8.94637 11.9055 8.46489 11.8571 8.1047C11.811 7.76163 11.7313 7.61428 11.6339 7.51754C11.5371 7.42079 11.3905 7.34117 11.0474 7.29428C10.688 7.24665 10.2058 7.24517 9.48837 7.24517H6.51163C5.79423 7.24517 5.312 7.24665 4.95256 7.29503C4.60949 7.34116 4.46214 7.42079 4.3654 7.51828C4.26865 7.61502 4.18902 7.76163 4.14214 8.1047C4.09451 8.46489 4.09302 8.94637 4.09302 9.66377V13.5707H2.97674V9.62507C2.97674 8.95679 2.97674 8.39865 3.03628 7.95661C3.09879 7.48926 3.23721 7.0673 3.57581 6.7287C3.91516 6.38935 4.33712 6.25093 4.80372 6.18842C5.24651 6.12889 5.80465 6.12889 6.47293 6.12889H9.52707ZM5.2093 9.29168C5.2093 9.14365 5.26811 9.00168 5.37278 8.89701C5.47745 8.79234 5.61941 8.73354 5.76744 8.73354H10.2326C10.3806 8.73354 10.5226 8.79234 10.6272 8.89701C10.7319 9.00168 10.7907 9.14365 10.7907 9.29168C10.7907 9.4397 10.7319 9.58167 10.6272 9.68634C10.5226 9.79101 10.3806 9.84982 10.2326 9.84982H5.76744C5.61941 9.84982 5.47745 9.79101 5.37278 9.68634C5.26811 9.58167 5.2093 9.4397 5.2093 9.29168ZM5.2093 11.5242C5.2093 11.3762 5.26811 11.2342 5.37278 11.1296C5.47745 11.0249 5.61941 10.9661 5.76744 10.9661H10.2326C10.3806 10.9661 10.5226 11.0249 10.6272 11.1296C10.7319 11.2342 10.7907 11.3762 10.7907 11.5242C10.7907 11.6723 10.7319 11.8142 10.6272 11.9189C10.5226 12.0236 10.3806 12.0824 10.2326 12.0824H5.76744C5.61941 12.0824 5.47745 12.0236 5.37278 11.9189C5.26811 11.8142 5.2093 11.6723 5.2093 11.5242Z" fill="white" fill-opacity="0.8"/>
</svg>
