<svg width="9" height="18" viewBox="0 0 9 18" fill="none" xmlns="http://www.w3.org/2000/svg">
<path d="M4.77 8.01002C2.727 7.47902 2.07 6.93002 2.07 6.07502C2.07 5.09402 2.979 4.41002 4.5 4.41002C5.778 4.41002 6.417 4.89602 6.651 5.67002C6.759 6.03003 7.056 6.30002 7.434 6.30002H7.704C8.298 6.30002 8.721 5.71502 8.514 5.15702C8.136 4.09502 7.254 3.21302 5.85 2.87102V2.25002C5.85 1.50302 5.247 0.900024 4.5 0.900024C3.753 0.900024 3.15 1.50302 3.15 2.25002V2.84402C1.404 3.22202 0 4.35602 0 6.09303C0 8.17203 1.719 9.20702 4.23 9.81002C6.48 10.35 6.93 11.142 6.93 11.979C6.93 12.6 6.489 13.59 4.5 13.59C3.015 13.59 2.25 13.059 1.953 12.303C1.818 11.952 1.512 11.7 1.143 11.7H0.891C0.288 11.7 -0.135 12.312 0.0899999 12.87C0.603 14.121 1.8 14.859 3.15 15.147V15.75C3.15 16.497 3.753 17.1 4.5 17.1C5.247 17.1 5.85 16.497 5.85 15.75V15.165C7.605 14.832 9 13.815 9 11.97C9 9.41403 6.813 8.54102 4.77 8.01002Z" fill="white" fill-opacity="0.35"/>
</svg>
