<svg width="20" height="21" viewBox="0 0 20 21" fill="none" xmlns="http://www.w3.org/2000/svg">
<path d="M20 2.16667V5.08333C20 5.30435 19.9122 5.51631 19.7559 5.67259C19.5996 5.82887 19.3877 5.91667 19.1667 5.91667C18.9457 5.91667 18.7337 5.82887 18.5774 5.67259C18.4211 5.51631 18.3333 5.30435 18.3333 5.08333V2.16667H15.4167C15.1957 2.16667 14.9837 2.07887 14.8274 1.92259C14.6711 1.76631 14.5833 1.55435 14.5833 1.33333C14.5833 1.11232 14.6711 0.900358 14.8274 0.744078C14.9837 0.587798 15.1957 0.5 15.4167 0.5H18.3333C18.7754 0.5 19.1993 0.675595 19.5118 0.988155C19.8244 1.30072 20 1.72464 20 2.16667ZM19.1667 15.0833C18.9457 15.0833 18.7337 15.1711 18.5774 15.3274C18.4211 15.4837 18.3333 15.6957 18.3333 15.9167V18.8333H15.4167C15.1957 18.8333 14.9837 18.9211 14.8274 19.0774C14.6711 19.2337 14.5833 19.4457 14.5833 19.6667C14.5833 19.8877 14.6711 20.0996 14.8274 20.2559C14.9837 20.4122 15.1957 20.5 15.4167 20.5H18.3333C18.7754 20.5 19.1993 20.3244 19.5118 20.0118C19.8244 19.6993 20 19.2754 20 18.8333V15.9167C20 15.6957 19.9122 15.4837 19.7559 15.3274C19.5996 15.1711 19.3877 15.0833 19.1667 15.0833ZM4.58333 18.8333H1.66667V15.9167C1.66667 15.6957 1.57887 15.4837 1.42259 15.3274C1.26631 15.1711 1.05435 15.0833 0.833333 15.0833C0.61232 15.0833 0.400358 15.1711 0.244078 15.3274C0.0877975 15.4837 0 15.6957 0 15.9167V18.8333C0 19.2754 0.175595 19.6993 0.488155 20.0118C0.800716 20.3244 1.22464 20.5 1.66667 20.5H4.58333C4.80435 20.5 5.01631 20.4122 5.17259 20.2559C5.32887 20.0996 5.41667 19.8877 5.41667 19.6667C5.41667 19.4457 5.32887 19.2337 5.17259 19.0774C5.01631 18.9211 4.80435 18.8333 4.58333 18.8333ZM0.833333 5.91667C1.05435 5.91667 1.26631 5.82887 1.42259 5.67259C1.57887 5.51631 1.66667 5.30435 1.66667 5.08333V2.16667H4.58333C4.80435 2.16667 5.01631 2.07887 5.17259 1.92259C5.32887 1.76631 5.41667 1.55435 5.41667 1.33333C5.41667 1.11232 5.32887 0.900358 5.17259 0.744078C5.01631 0.587798 4.80435 0.5 4.58333 0.5H1.66667C1.22464 0.5 0.800716 0.675595 0.488155 0.988155C0.175595 1.30072 0 1.72464 0 2.16667V5.08333C0 5.30435 0.0877975 5.51631 0.244078 5.67259C0.400358 5.82887 0.61232 5.91667 0.833333 5.91667ZM15 15.5C14.8705 15.5003 14.7428 15.4704 14.6269 15.4127C14.511 15.355 14.4101 15.2712 14.3323 15.1677C13.8277 14.495 13.1735 13.949 12.4214 13.5729C11.6692 13.1968 10.8399 13.001 9.99896 13.001C9.15805 13.001 8.32868 13.1968 7.57655 13.5729C6.82442 13.949 6.17017 14.495 5.66562 15.1677C5.53274 15.3445 5.33506 15.4613 5.11607 15.4924C4.89709 15.5234 4.67473 15.4662 4.49792 15.3333C4.32111 15.2004 4.20432 15.0028 4.17326 14.7838C4.1422 14.5648 4.19941 14.3424 4.33229 14.1656C5.07082 13.1768 6.05512 12.3982 7.1875 11.9073C6.56699 11.3408 6.13226 10.5999 5.94035 9.78187C5.74844 8.96386 5.80832 8.10694 6.11214 7.32356C6.41596 6.54019 6.94951 5.86698 7.64278 5.39226C8.33606 4.91755 9.15665 4.66353 9.99687 4.66353C10.8371 4.66353 11.6577 4.91755 12.351 5.39226C13.0442 5.86698 13.5778 6.54019 13.8816 7.32356C14.1854 8.10694 14.2453 8.96386 14.0534 9.78187C13.8615 10.5999 13.4268 11.3408 12.8062 11.9073C13.9394 12.3979 14.9244 13.1765 15.6635 14.1656C15.7565 14.2892 15.8133 14.4363 15.8275 14.5903C15.8417 14.7443 15.8127 14.8992 15.7438 15.0377C15.675 15.1762 15.5689 15.2928 15.4375 15.3744C15.3062 15.4561 15.1547 15.4996 15 15.5ZM10 11.3333C10.4945 11.3333 10.9778 11.1867 11.3889 10.912C11.8 10.6373 12.1205 10.2469 12.3097 9.79004C12.4989 9.33323 12.5484 8.83056 12.452 8.34561C12.3555 7.86065 12.1174 7.4152 11.7678 7.06557C11.4181 6.71593 10.9727 6.47783 10.4877 6.38137C10.0028 6.28491 9.50011 6.33441 9.04329 6.52363C8.58648 6.71285 8.19603 7.03328 7.92133 7.44441C7.64662 7.85553 7.5 8.33888 7.5 8.83333C7.5 9.49637 7.76339 10.1323 8.23223 10.6011C8.70107 11.0699 9.33696 11.3333 10 11.3333Z" fill="white" fill-opacity="0.35"/>
</svg>
