<svg width="13" height="13" viewBox="0 0 13 13" fill="none" xmlns="http://www.w3.org/2000/svg">
<path d="M5.59072 11.1814C4.48498 11.1814 3.40407 10.8536 2.48469 10.2392C1.5653 9.62492 0.848719 8.75177 0.425571 7.7302C0.00242233 6.70863 -0.108293 5.58452 0.107427 4.50003C0.323146 3.41553 0.85561 2.41936 1.63749 1.63749C2.41936 0.85561 3.41553 0.323146 4.50003 0.107427C5.58452 -0.108293 6.70863 0.00242233 7.7302 0.425571C8.75177 0.848719 9.62492 1.5653 10.2392 2.48469C10.8536 3.40407 11.1814 4.48498 11.1814 5.59072C11.1814 6.32491 11.0368 7.0519 10.7559 7.7302C10.4749 8.4085 10.0631 9.02481 9.54396 9.54396C9.02481 10.0631 8.4085 10.4749 7.7302 10.7559C7.0519 11.0368 6.32491 11.1814 5.59072 11.1814ZM5.59072 1.12112C4.70966 1.12112 3.84837 1.38238 3.11579 1.87188C2.38321 2.36137 1.81223 3.05711 1.47506 3.87111C1.13789 4.68511 1.04967 5.58082 1.22156 6.44495C1.39345 7.30909 1.81773 8.10285 2.44073 8.72586C3.06374 9.34887 3.8575 9.77315 4.72164 9.94504C5.58578 10.1169 6.48148 10.0287 7.29549 9.69153C8.10949 9.35436 8.80522 8.78339 9.29472 8.05081C9.78421 7.31822 10.0455 6.45694 10.0455 5.57587C10.0455 4.3944 9.57614 3.26131 8.74071 2.42588C7.90528 1.59046 6.7722 1.12112 5.59072 1.12112Z" fill="white" fill-opacity="0.15"/>
<path d="M12.4438 13.0005C12.3706 13.0009 12.2981 12.9866 12.2306 12.9585C12.163 12.9305 12.1017 12.8892 12.0503 12.8372L8.98392 9.77081C8.88556 9.66525 8.83201 9.52563 8.83456 9.38137C8.8371 9.23711 8.89555 9.09947 8.99757 8.99745C9.09959 8.89542 9.23723 8.83698 9.38149 8.83444C9.52575 8.83189 9.66537 8.88544 9.77093 8.9838L12.8373 12.0502C12.9416 12.1546 13.0001 12.2961 13.0001 12.4437C13.0001 12.5912 12.9416 12.7328 12.8373 12.8372C12.7859 12.8892 12.7246 12.9305 12.657 12.9585C12.5894 12.9866 12.5169 13.0009 12.4438 13.0005Z" fill="white" fill-opacity="0.15"/>
</svg>
