<svg width="17" height="17" viewBox="0 0 17 17" fill="none" xmlns="http://www.w3.org/2000/svg">
<path fill-rule="evenodd" clip-rule="evenodd" d="M7.3335 0.159193C7.6634 0.129176 7.99596 0.166338 8.31109 0.268435C8.62623 0.370531 8.9174 0.535442 9.16702 0.753209L9.28959 0.8676L15.6808 7.25961C16.1206 7.69954 16.3767 8.29026 16.3972 8.91202C16.4177 9.53378 16.201 10.1401 15.7911 10.608L15.6808 10.7257L11.0586 15.3479C10.6186 15.7877 10.0279 16.0438 9.40615 16.0643C8.78439 16.0848 8.1781 15.8681 7.71017 15.4582L7.59251 15.3479L1.19969 8.95586C0.965576 8.72176 0.781313 8.44266 0.658015 8.1354C0.534718 7.82814 0.474942 7.49909 0.482294 7.16809L0.491282 7.00059L0.876943 2.76404C0.926456 2.21805 1.15757 1.70443 1.53335 1.30525C1.90912 0.906068 2.40787 0.644382 2.94987 0.562013L3.09613 0.544854L7.3335 0.159193ZM5.28018 4.94809C5.1284 5.09987 5.00801 5.28005 4.92587 5.47836C4.84373 5.67666 4.80145 5.8892 4.80145 6.10385C4.80145 6.31849 4.84373 6.53104 4.92587 6.72934C5.00801 6.92765 5.1284 7.10783 5.28018 7.25961C5.43196 7.41138 5.61214 7.53178 5.81045 7.61392C6.00875 7.69606 6.22129 7.73834 6.43594 7.73834C6.65058 7.73834 6.86312 7.69606 7.06143 7.61392C7.25973 7.53178 7.43992 7.41138 7.5917 7.25961C7.89822 6.95308 8.07043 6.53734 8.07043 6.10385C8.07043 5.67036 7.89822 5.25462 7.5917 4.94809C7.28517 4.64157 6.86943 4.46936 6.43594 4.46936C6.00245 4.46936 5.58671 4.64157 5.28018 4.94809Z" fill="white" fill-opacity="0.6"/>
</svg>
