<svg width="19" height="17" viewBox="0 0 19 17" fill="none" xmlns="http://www.w3.org/2000/svg">
<path d="M7.78597 16.066C7.63521 16.066 7.49062 16.0061 7.38401 15.8995C7.2774 15.7929 7.21751 15.6483 7.21751 15.4975C7.21751 15.3468 7.2774 15.2022 7.38401 15.0956C7.49062 14.9889 7.63521 14.9291 7.78597 14.9291H15.1759C15.779 14.9291 16.3574 14.6895 16.7838 14.2631C17.2102 13.8366 17.4498 13.2583 17.4498 12.6552V3.55987C17.4498 2.95681 17.2102 2.37845 16.7838 1.95202C16.3574 1.52559 15.779 1.28603 15.1759 1.28603H7.78597C7.63521 1.28603 7.49062 1.22614 7.38401 1.11953C7.2774 1.01292 7.21751 0.868333 7.21751 0.717569C7.21751 0.566804 7.2774 0.422214 7.38401 0.315607C7.49062 0.209 7.63521 0.149109 7.78597 0.149109H15.1759C16.0805 0.149109 16.9481 0.508456 17.5877 1.1481C18.2274 1.78774 18.5867 2.65528 18.5867 3.55987V12.6552C18.5867 13.5598 18.2274 14.4274 17.5877 15.067C16.9481 15.7066 16.0805 16.066 15.1759 16.066H7.78597ZM7.95196 3.72586C8.00477 3.67292 8.0675 3.63092 8.13656 3.60226C8.20562 3.5736 8.27966 3.55885 8.35443 3.55885C8.4292 3.55885 8.50324 3.5736 8.5723 3.60226C8.64137 3.63092 8.7041 3.67292 8.7569 3.72586L12.7361 7.70507C12.7891 7.75788 12.8311 7.82061 12.8597 7.88967C12.8884 7.95873 12.9031 8.03277 12.9031 8.10754C12.9031 8.18232 12.8884 8.25635 12.8597 8.32542C12.8311 8.39448 12.7891 8.45721 12.7361 8.51001L8.7569 12.4892C8.65016 12.596 8.50539 12.6559 8.35443 12.6559C8.20348 12.6559 8.0587 12.596 7.95196 12.4892C7.84522 12.3825 7.78525 12.2377 7.78525 12.0868C7.78525 11.9358 7.84522 11.791 7.95196 11.6843L10.9614 8.676H0.964456C0.813691 8.676 0.669101 8.61611 0.562494 8.50951C0.455887 8.4029 0.395996 8.25831 0.395996 8.10754C0.395996 7.95678 0.455887 7.81219 0.562494 7.70558C0.669101 7.59897 0.813691 7.53908 0.964456 7.53908H10.9614L7.95196 4.5308C7.89902 4.47799 7.85702 4.41526 7.82836 4.3462C7.79971 4.27714 7.78496 4.2031 7.78496 4.12833C7.78496 4.05355 7.79971 3.97952 7.82836 3.91045C7.85702 3.84139 7.89902 3.77866 7.95196 3.72586Z" fill="white" fill-opacity="0.6"/>
</svg>
